<svg xmlns="http://www.w3.org/2000/svg" viewBox="0 0 800 160">
  <defs>
    <linearGradient id="bg" x1="0%" y1="0%" x2="100%" y2="100%">
      <stop offset="0%" style="stop-color:#0f172a"/>
      <stop offset="100%" style="stop-color:#1e293b"/>
    </linearGradient>
    <linearGradient id="accent" x1="0%" y1="0%" x2="100%" y2="0%">
      <stop offset="0%" style="stop-color:#22d3ee"/>
      <stop offset="100%" style="stop-color:#818cf8"/>
    </linearGradient>
  </defs>
  <rect width="800" height="160" rx="12" fill="url(#bg)"/>

  <!-- Shield icon -->
  <g transform="translate(40, 28)">
    <path d="M40 8 L68 22 L68 58 Q68 86 40 100 Q12 86 12 58 L12 22 Z"
          fill="none" stroke="url(#accent)" stroke-width="2.5" opacity="0.9"/>
    <path d="M28 48 L34 48 L37 37 L41 59 L44 43 L47 53 L51 48 L56 48"
          fill="none" stroke="#22d3ee" stroke-width="2" stroke-linecap="round" stroke-linejoin="round"/>
  </g>

  <!-- Title -->
  <text x="130" y="72" font-family="system-ui, -apple-system, 'Segoe UI', sans-serif"
        font-size="48" font-weight="700" fill="#f8fafc" letter-spacing="-1">
    OasisAgent
  </text>

  <!-- Tagline -->
  <text x="130" y="100" font-family="system-ui, -apple-system, 'Segoe UI', sans-serif"
        font-size="16" fill="#94a3b8" letter-spacing="0.5">
    Autonomous infrastructure ops for home labs
  </text>

  <!-- Right side: compact flow -->
  <g transform="translate(480, 38)" font-family="ui-monospace, monospace" font-size="11">
    <rect x="0" y="0" width="72" height="26" rx="4" fill="#1e293b" stroke="#334155" stroke-width="1"/>
    <text x="36" y="17" text-anchor="middle" fill="#22d3ee">Detect</text>

    <line x1="72" y1="13" x2="88" y2="13" stroke="#334155" stroke-width="1.5"/>
    <polygon points="85,9 91,13 85,17" fill="#334155"/>

    <rect x="91" y="0" width="72" height="26" rx="4" fill="#1e293b" stroke="#334155" stroke-width="1"/>
    <text x="127" y="17" text-anchor="middle" fill="#818cf8">Classify</text>

    <line x1="163" y1="13" x2="179" y2="13" stroke="#334155" stroke-width="1.5"/>
    <polygon points="176,9 182,13 176,17" fill="#334155"/>

    <rect x="182" y="0" width="72" height="26" rx="4" fill="#1e293b" stroke="#334155" stroke-width="1"/>
    <text x="218" y="17" text-anchor="middle" fill="#a78bfa">Resolve</text>

    <!-- Second row -->
    <rect x="0" y="40" width="72" height="26" rx="4" fill="#1e293b" stroke="#334155" stroke-width="1"/>
    <text x="36" y="57" text-anchor="middle" fill="#64748b">Verify</text>

    <line x1="72" y1="53" x2="88" y2="53" stroke="#334155" stroke-width="1.5"/>
    <polygon points="85,49 91,53 85,57" fill="#334155"/>

    <rect x="91" y="40" width="72" height="26" rx="4" fill="#1e293b" stroke="#334155" stroke-width="1"/>
    <text x="127" y="57" text-anchor="middle" fill="#64748b">Audit</text>
  </g>
</svg>
